<svg width="100%" viewBox="0 0 680 380" xmlns="http://www.w3.org/2000/svg">
  <defs>
    <radialGradient id="f-moon" cx="50%" cy="50%" r="50%"><stop offset="0%" stop-color="#f0e8b0" stop-opacity="0.95"/><stop offset="35%" stop-color="#f0e8b0" stop-opacity="0.5"/><stop offset="100%" stop-color="#f0e8b0" stop-opacity="0"/></radialGradient>
    <radialGradient id="f-gl" cx="50%" cy="50%" r="50%"><stop offset="0%" stop-color="#1a6040" stop-opacity="0.55"/><stop offset="60%" stop-color="#1a6040" stop-opacity="0.18"/><stop offset="100%" stop-color="#1a6040" stop-opacity="0"/></radialGradient>
    <radialGradient id="f-gd" cx="50%" cy="50%" r="50%"><stop offset="0%" stop-color="#0a3020" stop-opacity="0.7"/><stop offset="55%" stop-color="#0a3020" stop-opacity="0.2"/><stop offset="100%" stop-color="#0a3020" stop-opacity="0"/></radialGradient>
    <radialGradient id="f-pu" cx="50%" cy="50%" r="50%"><stop offset="0%" stop-color="#4818a0" stop-opacity="0.3"/><stop offset="55%" stop-color="#4818a0" stop-opacity="0.08"/><stop offset="100%" stop-color="#4818a0" stop-opacity="0"/></radialGradient>
    <radialGradient id="f-sp1" cx="50%" cy="50%" r="50%"><stop offset="0%" stop-color="#80ffbb" stop-opacity="0.9"/><stop offset="50%" stop-color="#80ffbb" stop-opacity="0.3"/><stop offset="100%" stop-color="#80ffbb" stop-opacity="0"/></radialGradient>
    <radialGradient id="f-sp2" cx="50%" cy="50%" r="50%"><stop offset="0%" stop-color="#b8b0ff" stop-opacity="0.85"/><stop offset="50%" stop-color="#b8b0ff" stop-opacity="0.25"/><stop offset="100%" stop-color="#b8b0ff" stop-opacity="0"/></radialGradient>
  </defs>
  <rect width="680" height="380" fill="#080c10"/>
  <ellipse cx="340" cy="85" rx="260" ry="200" fill="url(#f-moon)" opacity="0.4"/>
  <ellipse cx="340" cy="85" rx="100" ry="85" fill="url(#f-moon)" opacity="0.7"/>
  <circle cx="340" cy="80" r="20" fill="#f0e8b0" opacity="0.9"/>
  <ellipse cx="120" cy="340" rx="260" ry="220" fill="url(#f-gl)" opacity="0.9"/>
  <ellipse cx="520" cy="360" rx="280" ry="200" fill="url(#f-gd)" opacity="0.9"/>
  <ellipse cx="340" cy="310" rx="300" ry="180" fill="url(#f-gd)" opacity="0.7"/>
  <ellipse cx="60" cy="220" rx="200" ry="220" fill="url(#f-pu)" opacity="0.9"/>
  <ellipse cx="600" cy="200" rx="180" ry="200" fill="url(#f-pu)" opacity="0.7"/>
  <ellipse cx="340" cy="200" rx="220" ry="160" fill="url(#f-gl)" opacity="0.5"/>
  <ellipse cx="100" cy="158" rx="18" ry="18" fill="url(#f-sp1)" opacity="0.9"/>
  <ellipse cx="248" cy="132" rx="20" ry="20" fill="url(#f-sp2)" opacity="0.85"/>
  <ellipse cx="432" cy="122" rx="22" ry="22" fill="url(#f-sp1)" opacity="0.9"/>
  <ellipse cx="578" cy="148" rx="18" ry="18" fill="url(#f-sp2)" opacity="0.8"/>
  <ellipse cx="318" cy="108" rx="15" ry="15" fill="url(#f-sp1)" opacity="0.85"/>
  <circle cx="158" cy="44" r="1.5" fill="#c8c8ff" opacity="0.55"/>
  <circle cx="225" cy="28" r="1" fill="#ffffff" opacity="0.45"/>
  <circle cx="455" cy="36" r="1" fill="#ffffff" opacity="0.55"/>
  <circle cx="602" cy="32" r="1" fill="#ffffff" opacity="0.45"/>
</svg>
