<svg width="100%" viewBox="0 0 680 380" xmlns="http://www.w3.org/2000/svg">
  <defs>
    <radialGradient id="t-bg" cx="50%" cy="50%" r="50%"><stop offset="0%" stop-color="#101828" stop-opacity="0.8"/><stop offset="60%" stop-color="#101828" stop-opacity="0.2"/><stop offset="100%" stop-color="#101828" stop-opacity="0"/></radialGradient>
    <radialGradient id="t-warm" cx="50%" cy="50%" r="50%"><stop offset="0%" stop-color="#c06020" stop-opacity="0.45"/><stop offset="55%" stop-color="#c06020" stop-opacity="0.1"/><stop offset="100%" stop-color="#c06020" stop-opacity="0"/></radialGradient>
    <radialGradient id="t-blue" cx="50%" cy="50%" r="50%"><stop offset="0%" stop-color="#2060a0" stop-opacity="0.5"/><stop offset="55%" stop-color="#2060a0" stop-opacity="0.12"/><stop offset="100%" stop-color="#2060a0" stop-opacity="0"/></radialGradient>
    <radialGradient id="t-lamp" cx="50%" cy="50%" r="50%"><stop offset="0%" stop-color="#ffd080" stop-opacity="0.9"/><stop offset="45%" stop-color="#ffd080" stop-opacity="0.3"/><stop offset="100%" stop-color="#ffd080" stop-opacity="0"/></radialGradient>
  </defs>
  <rect width="680" height="380" fill="#080c14"/>
  <ellipse cx="340" cy="190" rx="400" ry="300" fill="url(#t-bg)" opacity="1"/>
  <ellipse cx="200" cy="240" rx="340" ry="260" fill="url(#t-blue)" opacity="0.9"/>
  <ellipse cx="480" cy="200" rx="320" ry="240" fill="url(#t-blue)" opacity="0.7"/>
  <ellipse cx="200" cy="160" rx="240" ry="200" fill="url(#t-warm)" opacity="0.8"/>
  <ellipse cx="500" cy="280" rx="220" ry="180" fill="url(#t-warm)" opacity="0.7"/>
  <ellipse cx="340" cy="340" rx="360" ry="160" fill="url(#t-warm)" opacity="0.5"/>
  <ellipse cx="160" cy="150" rx="28" ry="28" fill="url(#t-lamp)" opacity="0.9"/>
  <ellipse cx="400" cy="130" rx="24" ry="24" fill="url(#t-lamp)" opacity="0.85"/>
  <ellipse cx="560" cy="180" rx="22" ry="22" fill="url(#t-lamp)" opacity="0.8"/>
  <circle cx="120" cy="80" r="1.5" fill="#ffd080" opacity="0.5"/>
  <circle cx="580" cy="70" r="1" fill="#ffffff" opacity="0.4"/>
  <circle cx="340" cy="56" r="1.5" fill="#ffffff" opacity="0.45"/>
</svg>
